{
  "accessors": [
    {
      "bufferView": 3,
      "componentType": 5126,
      "count": 3708,
      "max": [
        0.10875657945871353,
        0.7726454734802246,
        0.5278075933456421
      ],
      "min": [
        -0.11330605298280716,
        0.5541783571243286,
        -0.3702540397644043
      ],
      "type": "VEC3"
    },
    {
      "bufferView": 3,
      "byteOffset": 44496,
      "componentType": 5126,
      "count": 3708,
      "max": [
        1.0,
        1.0,
        0.9999690055847168
      ],
      "min": [
        -1.0,
        -1.0,
        -1.0
      ],
      "type": "VEC3"
    },
    {
      "bufferView": 4,
      "componentType": 5126,
      "count": 3708,
      "max": [
        0.9998451471328735,
        1.0,
        1.0,
        1.0
      ],
      "min": [
        -1.0,
        -0.9999690055847168,
        -1.0,
        -1.0
      ],
      "type": "VEC4"
    },
    {
      "bufferView": 2,
      "componentType": 5126,
      "count": 3708,
      "max": [
        0.99560546875,
        0.99755859375
      ],
      "min": [
        0.0020904541015625,
        0.00423431396484375
      ],
      "type": "VEC2"
    },
    {
      "bufferView": 1,
      "componentType": 5125,
      "count": 12474,
      "type": "SCALAR"
    },
    {
      "bufferView": 3,
      "byteOffset": 88992,
      "componentType": 5126,
      "count": 17685,
      "max": [
        0.20605972409248352,
        0.7573416829109192,
        0.5861095786094666
      ],
      "min": [
        -0.206259086728096,
        0.0009868048364296556,
        -0.6016353964805603
      ],
      "type": "VEC3"
    },
    {
      "bufferView": 3,
      "byteOffset": 301212,
      "componentType": 5126,
      "count": 17685,
      "max": [
        1.0,
        1.0,
        0.999845027923584
      ],
      "min": [
        -1.0,
        -1.0,
        -1.0
      ],
      "type": "VEC3"
    },
    {
      "bufferView": 4,
      "byteOffset": 59328,
      "componentType": 5126,
      "count": 17685,
      "max": [
        1.0,
        0.9998760223388672,
        1.0,
        1.0
      ],
      "min": [
        -1.0,
        -1.0,
        -1.0,
        -1.0
      ],
      "type": "VEC4"
    },
    {
      "bufferView": 2,
      "byteOffset": 29664,
      "componentType": 5126,
      "count": 17685,
      "max": [
        0.99658203125,
        0.99853515625
      ],
      "min": [
        0.005794525146484375,
        0.003383636474609375
      ],
      "type": "VEC2"
    },
    {
      "bufferView": 1,
      "byteOffset": 49896,
      "componentType": 5125,
      "count": 54354,
      "type": "SCALAR"
    },
    {
      "bufferView": 5,
      "componentType": 5126,
      "count": 12,
      "max": [
        1.0,
        1.1721595427616194e-07,
        2.0671073741596047e-09,
        0.0,
        7.439291493938072e-08,
        1.0,
        0.007720956578850746,
        0.0,
        8.774800619448797e-08,
        0.007720957975834608,
        1.0,
        0.0,
        0.0067546796053647995,
        0.0018973983824253082,
        2.1454331999848364e-06,
        1.0
      ],
      "min": [
        -0.010000001639127731,
        -0.009999998845160007,
        -3.5961202904388756e-09,
        0.0,
        -0.009999998845160007,
        -1.19209286886246e-09,
        -0.009999998845160007,
        0.0,
        -8.666576434279705e-08,
        -0.009999998845160007,
        -0.009999997913837433,
        0.0,
        -0.0016515114111825824,
        -0.006627998314797878,
        -0.00784375425428152,
        1.0
      ],
      "type": "MAT4"
    },
    {
      "bufferView": 0,
      "componentType": 5123,
      "count": 3708,
      "type": "VEC4"
    },
    {
      "bufferView": 4,
      "byteOffset": 342288,
      "componentType": 5126,
      "count": 3708,
      "max": [
        1.0,
        0.0,
        0.0,
        0.0
      ],
      "min": [
        1.0,
        0.0,
        0.0,
        0.0
      ],
      "type": "VEC4"
    },
    {
      "bufferView": 0,
      "byteOffset": 29664,
      "componentType": 5123,
      "count": 17685,
      "type": "VEC4"
    },
    {
      "bufferView": 4,
      "byteOffset": 401616,
      "componentType": 5126,
      "count": 17685,
      "max": [
        1.0,
        0.0,
        0.0,
        0.0
      ],
      "min": [
        1.0,
        0.0,
        0.0,
        0.0
      ],
      "type": "VEC4"
    },
    {
      "bufferView": 6,
      "componentType": 5126,
      "count": 1,
      "max": [
        0.0
      ],
      "min": [
        0.0
      ],
      "type": "SCALAR"
    },
    {
      "bufferView": 8,
      "componentType": 5126,
      "count": 1,
      "max": [
        1.376787679419067e-07,
        -0.7071067690849304,
        0.7071067690849304,
        0.0001726334885461256
      ],
      "min": [
        1.376787679419067e-07,
        -0.7071067690849304,
        0.7071067690849304,
        0.0001726334885461256
      ],
      "type": "VEC4"
    },
    {
      "bufferView": 6,
      "byteOffset": 4,
      "componentType": 5126,
      "count": 38,
      "max": [
        0.6666666865348816
      ],
      "min": [
        0.0
      ],
      "type": "SCALAR"
    },
    {
      "bufferView": 7,
      "componentType": 5126,
      "count": 38,
      "max": [
        0.0,
        0.0029447658453136683,
        -0.006752534303814173
      ],
      "min": [
        0.0,
        0.0029447658453136683,
        -0.00745350681245327
      ],
      "type": "VEC3"
    },
    {
      "bufferView": 6,
      "byteOffset": 156,
      "componentType": 5126,
      "count": 38,
      "max": [
        0.6666666865348816
      ],
      "min": [
        0.0
      ],
      "type": "SCALAR"
    },
    {
      "bufferView": 8,
      "byteOffset": 16,
      "componentType": 5126,
      "count": 38,
      "max": [
        0.6852993369102478,
        -0.6423160433769226,
        -0.17425496876239777,
        0.2956857979297638
      ],
      "min": [
        0.6423160433769226,
        -0.6852993369102478,
        -0.2956858277320862,
        0.17425501346588135
      ],
      "type": "VEC4"
    },
    {
      "bufferView": 6,
      "byteOffset": 308,
      "componentType": 5126,
      "count": 38,
      "max": [
        0.6666666865348816
      ],
      "min": [
        0.0
      ],
      "type": "SCALAR"
    },
    {
      "bufferView": 8,
      "byteOffset": 624,
      "componentType": 5126,
      "count": 38,
      "max": [
        4.50099105364643e-06,
        0.8546457290649414,
        0.7634549140930176,
        0.0003452666278462857
      ],
      "min": [
        3.450840040386538e-06,
        0.6458611488342285,
        0.5192115902900696,
        0.0
      ],
      "type": "VEC4"
    },
    {
      "bufferView": 6,
      "byteOffset": 460,
      "componentType": 5126,
      "count": 38,
      "max": [
        0.6666666865348816
      ],
      "min": [
        0.0
      ],
      "type": "SCALAR"
    },
    {
      "bufferView": 8,
      "byteOffset": 1232,
      "componentType": 5126,
      "count": 38,
      "max": [
        0.6876102685928345,
        -0.6501027345657349,
        -0.16490013897418976,
        0.278148353099823
      ],
      "min": [
        0.6501027345657349,
        -0.6876102685928345,
        -0.27814817428588867,
        0.1649004966020584
      ],
      "type": "VEC4"
    },
    {
      "bufferView": 6,
      "byteOffset": 612,
      "componentType": 5126,
      "count": 38,
      "max": [
        0.6666666865348816
      ],
      "min": [
        0.0
      ],
      "type": "SCALAR"
    },
    {
      "bufferView": 8,
      "byteOffset": 1840,
      "componentType": 5126,
      "count": 38,
      "max": [
        5.276001957099652e-06,
        -0.6592957377433777,
        -0.5192121267318726,
        0.000244140625
      ],
      "min": [
        3.882905275531812e-06,
        -0.8546454310417175,
        -0.7518836855888367,
        0.0
      ],
      "type": "VEC4"
    },
    {
      "bufferView": 6,
      "byteOffset": 764,
      "componentType": 5126,
      "count": 38,
      "max": [
        0.6666666865348816
      ],
      "min": [
        0.0
      ],
      "type": "SCALAR"
    },
    {
      "bufferView": 8,
      "byteOffset": 2448,
      "componentType": 5126,
      "count": 38,
      "max": [
        0.6849716305732727,
        -0.6451085805892944,
        -0.17553867399692535,
        0.2895424962043762
      ],
      "min": [
        0.6451085805892944,
        -0.6849716305732727,
        -0.28954264521598816,
        0.17553897202014923
      ],
      "type": "VEC4"
    },
    {
      "bufferView": 6,
      "byteOffset": 916,
      "componentType": 5126,
      "count": 38,
      "max": [
        0.6666666865348816
      ],
      "min": [
        0.0
      ],
      "type": "SCALAR"
    },
    {
      "bufferView": 8,
      "byteOffset": 3056,
      "componentType": 5126,
      "count": 38,
      "max": [
        4.9594555093790404e-06,
        0.8546450734138489,
        0.7518840432167053,
        0.0002990099892485887
      ],
      "min": [
        3.7422196328407153e-06,
        0.659295380115509,
        0.5192124843597412,
        0.0
      ],
      "type": "VEC4"
    },
    {
      "bufferView": 6,
      "byteOffset": 1068,
      "componentType": 5126,
      "count": 38,
      "max": [
        0.6666666865348816
      ],
      "min": [
        0.0
      ],
      "type": "SCALAR"
    },
    {
      "bufferView": 8,
      "byteOffset": 3664,
      "componentType": 5126,
      "count": 38,
      "max": [
        0.6861873865127563,
        -0.6447529792785645,
        -0.1707245260477066,
        0.29033371806144714
      ],
      "min": [
        0.6447529792785645,
        -0.6861873865127563,
        -0.2903335392475128,
        0.1707247495651245
      ],
      "type": "VEC4"
    },
    {
      "bufferView": 6,
      "byteOffset": 1220,
      "componentType": 5126,
      "count": 38,
      "max": [
        0.6666666865348816
      ],
      "min": [
        0.0
      ],
      "type": "SCALAR"
    },
    {
      "bufferView": 8,
      "byteOffset": 4272,
      "componentType": 5126,
      "count": 38,
      "max": [
        4.839377652388066e-06,
        -0.64585942029953,
        -0.5192126035690308,
        0.0002990099892485887
      ],
      "min": [
        3.6571409509633668e-06,
        -0.8546451330184937,
        -0.7634563446044922,
        0.0
      ],
      "type": "VEC4"
    }
  ],
  "animations": [
    {
      "channels": [
        {
          "sampler": 0,
          "target": {
            "node": 9,
            "path": "rotation"
          }
        },
        {
          "sampler": 1,
          "target": {
            "node": 10,
            "path": "translation"
          }
        },
        {
          "sampler": 2,
          "target": {
            "node": 11,
            "path": "rotation"
          }
        },
        {
          "sampler": 3,
          "target": {
            "node": 12,
            "path": "rotation"
          }
        },
        {
          "sampler": 4,
          "target": {
            "node": 13,
            "path": "rotation"
          }
        },
        {
          "sampler": 5,
          "target": {
            "node": 14,
            "path": "rotation"
          }
        },
        {
          "sampler": 6,
          "target": {
            "node": 15,
            "path": "rotation"
          }
        },
        {
          "sampler": 7,
          "target": {
            "node": 16,
            "path": "rotation"
          }
        },
        {
          "sampler": 8,
          "target": {
            "node": 17,
            "path": "rotation"
          }
        },
        {
          "sampler": 9,
          "target": {
            "node": 18,
            "path": "rotation"
          }
        }
      ],
      "name": "Anim_RobotDog_Dancing_0",
      "samplers": [
        {
          "input": 15,
          "interpolation": "LINEAR",
          "output": 16
        },
        {
          "input": 17,
          "interpolation": "LINEAR",
          "output": 18
        },
        {
          "input": 19,
          "interpolation": "LINEAR",
          "output": 20
        },
        {
          "input": 21,
          "interpolation": "LINEAR",
          "output": 22
        },
        {
          "input": 23,
          "interpolation": "LINEAR",
          "output": 24
        },
        {
          "input": 25,
          "interpolation": "LINEAR",
          "output": 26
        },
        {
          "input": 27,
          "interpolation": "LINEAR",
          "output": 28
        },
        {
          "input": 29,
          "interpolation": "LINEAR",
          "output": 30
        },
        {
          "input": 31,
          "interpolation": "LINEAR",
          "output": 32
        },
        {
          "input": 33,
          "interpolation": "LINEAR",
          "output": 34
        }
      ]
    }
  ],
  "asset": {
    "extras": {
      "author": "mihaela333.mb (https://sketchfab.com/mihaela333.mb)",
      "license": "CC-BY-4.0 (http://creativecommons.org/licenses/by/4.0/)",
      "source": "https://sketchfab.com/3d-models/doglb-db18a0acef1b4cf2a3d93e258d326394",
      "title": "doglb"
    },
    "generator": "Sketchfab-16.15.0",
    "version": "2.0"
  },
  "bufferViews": [
    {
      "buffer": 0,
      "byteLength": 171144,
      "byteStride": 8,
      "name": "shortBufferViews",
      "target": 34962
    },
    {
      "buffer": 0,
      "byteLength": 267312,
      "byteOffset": 171144,
      "name": "floatBufferViews",
      "target": 34963
    },
    {
      "buffer": 0,
      "byteLength": 171144,
      "byteOffset": 438456,
      "byteStride": 8,
      "name": "floatBufferViews",
      "target": 34962
    },
    {
      "buffer": 0,
      "byteLength": 513432,
      "byteOffset": 609600,
      "byteStride": 12,
      "name": "floatBufferViews",
      "target": 34962
    },
    {
      "buffer": 0,
      "byteLength": 684576,
      "byteOffset": 1123032,
      "byteStride": 16,
      "name": "floatBufferViews",
      "target": 34962
    },
    {
      "buffer": 0,
      "byteLength": 768,
      "byteOffset": 1807608,
      "name": "floatBufferViews"
    },
    {
      "buffer": 0,
      "byteLength": 1372,
      "byteOffset": 1808376,
      "name": "floatBufferViews"
    },
    {
      "buffer": 0,
      "byteLength": 456,
      "byteOffset": 1809748,
      "byteStride": 12,
      "name": "floatBufferViews"
    },
    {
      "buffer": 0,
      "byteLength": 4880,
      "byteOffset": 1810204,
      "byteStride": 16,
      "name": "floatBufferViews"
    }
  ],
  "buffers": [
    {
      "byteLength": 1815084,
      "uri": "scene.bin"
    }
  ],
  "extensionsUsed": [
    "KHR_materials_specular",
    "KHR_materials_emissive_strength"
  ],
  "images": [
    {
      "uri": "textures/MI_Robot_Dog_Body_ColorV_baseColor.png"
    },
    {
      "uri": "textures/MI_Robot_Dog_Body_ColorV_metallicRoughness.png"
    },
    {
      "uri": "textures/MI_Robot_Dog_Body_ColorV_normal.png"
    },
    {
      "uri": "textures/MI_Robot_Dog_Body_ColorV_specularf0.png"
    },
    {
      "uri": "textures/MI_Robot_Dog_Leg_ColorV_baseColor.png"
    },
    {
      "uri": "textures/MI_Robot_Dog_Leg_ColorV_metallicRoughness.png"
    },
    {
      "uri": "textures/MI_Robot_Dog_Leg_ColorV_emissive.png"
    },
    {
      "uri": "textures/MI_Robot_Dog_Leg_ColorV_normal.png"
    }
  ],
  "materials": [
    {
      "extensions": {
        "KHR_materials_specular": {
          "specularColorFactor": [
            1.0,
            1.0,
            1.0
          ],
          "specularFactor": 1.0,
          "specularTexture": {
            "index": 3
          }
        }
      },
      "name": "MI_Robot_Dog_Body_ColorV",
      "normalTexture": {
        "index": 2
      },
      "occlusionTexture": {
        "index": 1
      },
      "pbrMetallicRoughness": {
        "baseColorTexture": {
          "index": 0
        },
        "metallicRoughnessTexture": {
          "index": 1
        }
      }
    },
    {
      "emissiveFactor": [
        1.0,
        1.0,
        1.0
      ],
      "emissiveTexture": {
        "index": 6
      },
      "extensions": {
        "KHR_materials_emissive_strength": {
          "emissiveStrength": 10.0
        }
      },
      "name": "MI_Robot_Dog_Leg_ColorV",
      "normalTexture": {
        "index": 7
      },
      "occlusionTexture": {
        "index": 5
      },
      "pbrMetallicRoughness": {
        "baseColorTexture": {
          "index": 4
        },
        "metallicRoughnessTexture": {
          "index": 5
        }
      }
    }
  ],
  "meshes": [
    {
      "name": "Object_0",
      "primitives": [
        {
          "attributes": {
            "JOINTS_0": 11,
            "NORMAL": 1,
            "POSITION": 0,
            "TANGENT": 2,
            "TEXCOORD_0": 3,
            "TEXCOORD_1": 3,
            "TEXCOORD_2": 3,
            "TEXCOORD_3": 3,
            "TEXCOORD_4": 3,
            "WEIGHTS_0": 12
          },
          "indices": 4,
          "material": 0,
          "mode": 4
        }
      ]
    },
    {
      "name": "Object_1",
      "primitives": [
        {
          "attributes": {
            "JOINTS_0": 13,
            "NORMAL": 6,
            "POSITION": 5,
            "TANGENT": 7,
            "TEXCOORD_0": 8,
            "TEXCOORD_1": 8,
            "TEXCOORD_2": 8,
            "TEXCOORD_3": 8,
            "TEXCOORD_4": 8,
            "TEXCOORD_5": 8,
            "WEIGHTS_0": 14
          },
          "indices": 9,
          "material": 1,
          "mode": 4
        }
      ]
    }
  ],
  "nodes": [
    {
      "children": [
        1
      ],
      "matrix": [
        1.0,
        0.0,
        0.0,
        0.0,
        0.0,
        2.220446049250313e-16,
        -1.0,
        0.0,
        0.0,
        1.0,
        2.220446049250313e-16,
        0.0,
        0.0,
        0.0,
        0.0,
        1.0
      ],
      "name": "Sketchfab_model"
    },
    {
      "children": [
        2
      ],
      "name": "root"
    },
    {
      "children": [
        3
      ],
      "matrix": [
        1.0,
        0.0,
        0.0,
        0.0,
        0.0,
        2.220446049250313e-16,
        1.0,
        0.0,
        0.0,
        -1.0,
        2.220446049250313e-16,
        0.0,
        0.0,
        0.0,
        0.0,
        1.0
      ],
      "name": "GLTF_SceneRootNode"
    },
    {
      "children": [
        4
      ],
      "name": "_0"
    },
    {
      "children": [
        5,
        6,
        7
      ],
      "name": "GLTF_created_0"
    },
    {
      "children": [
        8
      ],
      "name": "GLTF_created_0_rootJoint"
    },
    {
      "mesh": 0,
      "name": "Object_6",
      "skin": 0
    },
    {
      "mesh": 1,
      "name": "Object_7",
      "skin": 0
    },
    {
      "children": [
        9
      ],
      "name": "UE_RIG_1",
      "scale": [
        100.0,
        100.0,
        100.0
      ]
    },
    {
      "children": [
        10
      ],
      "name": "Root_2",
      "rotation": [
        1.3767878215276141e-07,
        -0.7071068286895752,
        0.7071068286895752,
        1.3767878215276141e-07
      ]
    },
    {
      "children": [
        11,
        13,
        15,
        17
      ],
      "name": "Body_3",
      "rotation": [
        -0.4999999701976776,
        -0.5000001192092896,
        -0.5000001192092896,
        0.5
      ],
      "translation": [
        3.5272583465140173e-12,
        0.0029447658453136683,
        -0.006752534303814173
      ]
    },
    {
      "children": [
        12
      ],
      "name": "L_Front_Leg_Up_4",
      "rotation": [
        0.6459479331970215,
        -0.6459547281265259,
        -0.28765612840652466,
        0.28765925765037537
      ],
      "translation": [
        3.6832909245276824e-05,
        -0.001651437720283866,
        -0.007157702464610338
      ]
    },
    {
      "name": "L_Front_Leg_Down_5",
      "rotation": [
        3.584054411476245e-06,
        0.6600752472877502,
        0.75119948387146,
        4.086462467967067e-06
      ],
      "translation": [
        2.0073359641159527e-10,
        4.1764558478263325e-10,
        -0.0040482948534190655
      ]
    },
    {
      "children": [
        14
      ],
      "name": "R_Front_Leg_Up_6",
      "rotation": [
        -0.6422367095947266,
        0.6422288417816162,
        0.2958683967590332,
        -0.29586490988731384
      ],
      "translation": [
        3.6831945180892944e-05,
        0.0016514381859451532,
        -0.007157700601965189
      ]
    },
    {
      "name": "R_Front_Leg_Down_7",
      "rotation": [
        -3.951474354835227e-06,
        0.6600751876831055,
        0.7511995434761047,
        -4.444662863534177e-06
      ],
      "translation": [
        1.3062549653053424e-10,
        2.564005396887836e-10,
        -0.004048292990773916
      ]
    },
    {
      "children": [
        16
      ],
      "name": "L_Back_Leg_Up_8",
      "rotation": [
        0.6449276208877563,
        -0.6449346542358398,
        -0.28993600606918335,
        0.289939284324646
      ],
      "translation": [
        3.6832909245276824e-05,
        -0.001651438302360475,
        -0.00015760542009957135
      ]
    },
    {
      "name": "L_Back_Leg_Down_9",
      "rotation": [
        3.7422196328407153e-06,
        0.6600751876831055,
        0.7511995434761047,
        4.176012680545682e-06
      ],
      "translation": [
        2.0073938344911113e-10,
        7.881243435647889e-10,
        -0.004048292990773916
      ]
    },
    {
      "children": [
        18
      ],
      "name": "R_Back_Leg_Up_10",
      "rotation": [
        -0.6488407254219055,
        0.648833155632019,
        0.28108981251716614,
        -0.28108665347099304
      ],
      "translation": [
        3.6831945180892944e-05,
        0.0016514378366991878,
        -0.0001576054928591475
      ]
    },
    {
      "name": "R_Back_Leg_Down_11",
      "rotation": [
        -3.712867737704073e-06,
        0.6600752472877502,
        0.75119948387146,
        -4.2655619836295955e-06
      ],
      "translation": [
        2.0072181416974644e-10,
        -5.641276334955592e-10,
        -0.004048293922096491
      ]
    }
  ],
  "samplers": [
    {
      "magFilter": 9729,
      "minFilter": 9987,
      "wrapS": 10497,
      "wrapT": 10497
    }
  ],
  "scene": 0,
  "scenes": [
    {
      "name": "Sketchfab_Scene",
      "nodes": [
        0
      ]
    }
  ],
  "skins": [
    {
      "inverseBindMatrices": 10,
      "joints": [
        5,
        8,
        9,
        10,
        11,
        12,
        13,
        14,
        15,
        16,
        17,
        18
      ],
      "skeleton": 5
    }
  ],
  "textures": [
    {
      "sampler": 0,
      "source": 0
    },
    {
      "sampler": 0,
      "source": 1
    },
    {
      "sampler": 0,
      "source": 2
    },
    {
      "sampler": 0,
      "source": 3
    },
    {
      "sampler": 0,
      "source": 4
    },
    {
      "sampler": 0,
      "source": 5
    },
    {
      "sampler": 0,
      "source": 6
    },
    {
      "sampler": 0,
      "source": 7
    }
  ]
}
